<?xml version="1.0" standalone="no"?>
<!DOCTYPE svg PUBLIC "-//W3C//DTD SVG 20010904//EN"
 "http://www.w3.org/TR/2001/REC-SVG-20010904/DTD/svg10.dtd">
<svg version="1.0" xmlns="http://www.w3.org/2000/svg"
 width="700.000000pt" height="700.000000pt" viewBox="0 0 700.000000 700.000000"
 preserveAspectRatio="xMidYMid meet">
<metadata>
Created by potrace 1.14, written by Peter Selinger 2001-2017
</metadata>
<g transform="translate(0.000000,700.000000) scale(0.100000,-0.100000)"
fill="#000000" stroke="none">
<path d="M1493 5532 c-17 -3 -23 -10 -24 -30 -3 -130 1 -2120 5 -2162 8 -99
25 -202 50 -315 55 -254 207 -564 386 -790 296 -374 762 -656 1203 -730 17 -3
57 -10 87 -15 107 -19 373 -27 485 -15 22 2 65 7 95 10 85 9 264 52 380 91
195 67 418 187 595 323 71 54 279 259 321 316 16 22 35 46 41 53 27 29 144
212 186 292 114 218 198 503 222 752 5 54 6 311 1 358 -35 344 -134 629 -320
920 -22 36 -46 72 -53 80 -6 8 -41 51 -76 96 -208 262 -524 494 -847 622 -73
29 -228 79 -271 87 -11 2 -28 6 -37 9 -9 3 -33 8 -52 11 -19 3 -46 7 -60 10
-45 9 -103 15 -190 21 -88 6 -2087 12 -2127 6z m2272 -690 c421 -99 744 -340
944 -705 132 -239 190 -570 146 -832 -23 -136 -25 -147 -56 -239 -69 -206
-171 -368 -334 -531 -187 -187 -377 -297 -622 -359 -134 -34 -195 -41 -358
-40 -271 1 -502 70 -730 217 -178 115 -330 273 -433 450 -42 73 -57 104 -108
222 -14 33 -57 193 -70 260 -4 22 -9 388 -11 813 l-4 773 773 -4 c746 -3 776
-4 863 -25z"/>
<path d="M2329 4641 c-8 -49 -2 -84 15 -82 3 1 10 1 14 1 5 0 8 -62 8 -137 -1
-131 -2 -138 -21 -138 -17 0 -20 -7 -19 -40 l0 -40 110 0 c120 1 153 11 188
58 18 25 21 45 23 150 4 196 -25 229 -209 233 -59 1 -108 -1 -109 -5z m203
-86 c10 -4 22 -21 26 -38 11 -42 6 -181 -8 -206 -11 -22 -14 -23 -65 -25 l-30
-1 -3 141 -3 142 33 -3 c18 -1 41 -6 50 -10z"/>
<path d="M2791 4640 c-5 -3 -12 -21 -16 -40 -4 -19 -24 -107 -45 -195 -53
-218 -53 -200 -3 -201 39 -2 42 0 48 30 13 64 10 62 89 64 81 2 77 5 91 -63 5
-28 9 -31 51 -32 39 -2 44 0 40 15 -5 17 -83 339 -95 397 -7 29 -7 29 -79 30
-40 0 -77 -2 -81 -5z m109 -170 c10 -46 18 -85 17 -87 -5 -5 -97 -6 -102 -1
-5 5 26 162 42 213 7 24 12 11 43 -125z"/>
<path d="M3170 4639 c-47 -19 -74 -54 -86 -114 -9 -44 -5 -202 6 -230 35 -93
153 -130 244 -77 53 31 70 82 70 207 -1 124 -12 157 -67 199 -27 21 -45 26
-88 25 -30 0 -65 -5 -79 -10z m98 -70 c40 -14 52 -50 52 -161 0 -81 -2 -91
-25 -113 -29 -30 -74 -32 -106 -6 -21 17 -24 29 -28 107 -4 109 9 159 47 172
15 6 27 11 28 11 1 1 15 -4 32 -10z"/>
<path d="M3465 4641 c-3 -2 -5 -21 -5 -41 l0 -36 49 2 c29 1 52 -3 54 -10 2
-6 3 -69 3 -141 l-1 -130 -45 -2 c-25 -1 -49 -2 -53 -2 -5 -1 -7 -18 -5 -38
l3 -38 145 0 144 0 2 38 c3 40 5 38 -68 40 l-38 1 0 141 0 142 43 0 c23 1 48
1 55 2 8 1 12 14 11 39 l-3 38 -143 0 c-79 0 -146 -2 -148 -5z"/>
<path d="M3847 4412 c-12 -3 -17 -14 -17 -38 l0 -34 100 1 100 2 0 34 c0 18
-3 33 -7 34 -27 3 -162 3 -176 1z"/>
<path d="M2435 3888 c-123 -34 -128 -198 -7 -239 20 -7 39 -14 42 -14 83 -15
113 -37 103 -76 -6 -20 -48 -47 -70 -43 -7 1 -22 2 -32 3 -38 2 -63 35 -70 92
-1 3 -19 5 -41 5 -36 0 -40 -3 -40 -26 0 -46 42 -112 84 -134 71 -36 188 -19
226 34 29 40 33 109 10 148 -23 37 -55 55 -130 72 -85 19 -116 61 -70 93 39
27 104 9 119 -33 10 -29 14 -32 46 -32 40 0 45 3 45 30 0 37 -33 88 -69 106
-36 19 -105 26 -146 14z"/>
<path d="M2831 3889 c-18 -4 -45 -16 -60 -26 -47 -36 -56 -67 -56 -203 0 -115
2 -128 23 -158 32 -44 77 -65 139 -65 75 0 127 36 146 100 16 54 15 222 -1
263 -13 33 -60 79 -86 85 -46 10 -72 11 -105 4z m74 -75 c32 -13 45 -59 45
-159 0 -88 -2 -98 -25 -120 -38 -39 -97 -30 -121 17 -19 37 -18 191 2 230 17
33 60 47 99 32z"/>
<path d="M3990 3893 c-49 -7 -79 -25 -107 -66 -27 -39 -28 -45 -28 -161 0
-104 3 -126 20 -156 37 -62 113 -89 195 -67 61 16 92 54 104 130 l6 37 -45 0
c-43 0 -45 -1 -45 -30 0 -38 -34 -70 -75 -70 -34 0 -74 30 -76 58 -6 71 -4
162 3 190 5 18 20 39 32 47 46 30 116 -4 116 -56 0 -30 15 -37 63 -31 26 4 27
7 21 41 -16 94 -89 147 -184 134z"/>
<path d="M3096 3881 c-1 -3 -2 -80 -1 -171 2 -172 8 -203 51 -242 68 -60 210
-35 247 45 15 30 22 168 18 333 l-1 42 -40 -1 -40 -1 0 -162 c0 -180 -5 -196
-67 -209 -26 -5 -37 -2 -58 19 -23 23 -25 32 -26 128 0 57 0 130 1 164 l1 61
-41 0 c-22 0 -42 -3 -44 -6z"/>
<path d="M3492 3876 c-5 -6 -8 -105 -8 -221 l1 -209 43 -2 42 -1 0 84 0 83 60
0 c68 0 68 0 72 -105 l3 -60 35 -1 c19 0 38 3 41 8 3 5 5 44 4 88 -2 80 -14
110 -42 110 -10 0 -4 11 16 29 56 52 43 143 -26 188 -20 14 -49 18 -130 18
-63 1 -107 -3 -111 -9z m199 -87 c26 -26 24 -64 -3 -83 -13 -9 -43 -16 -70
-16 l-48 0 0 58 0 58 51 1 c38 1 55 -3 70 -18z"/>
<path d="M4249 3885 c-1 0 -2 -98 -3 -217 -2 -190 0 -218 13 -222 9 -2 73 -4
144 -4 l127 1 0 38 c0 24 -5 39 -12 40 -7 0 -51 2 -98 2 l-85 2 -3 51 -3 50
91 -1 c57 -1 90 3 91 9 0 6 2 19 4 30 7 37 -3 42 -83 41 -115 -2 -109 -7 -103
91 1 7 30 10 84 10 45 -1 89 2 98 6 14 6 17 29 10 69 -1 4 -262 8 -272 4z"/>
</g>
</svg>
