<?xml version="1.0" standalone="no"?>
<!DOCTYPE svg PUBLIC "-//W3C//DTD SVG 1.0//EN" "http://www.w3.org/TR/2001/REC-SVG-20010904/DTD/svg10.dtd">
<svg xmlns="http://www.w3.org/2000/svg" xmlns:xlink="http://www.w3.org/1999/xlink" id="body_1" width="368" height="461">

<g transform="matrix(0.60032624 0 0 0.59947985 0 0)">
    <path d="M422.98557 446.86142L423.29556 445.89142L424.14557 432.7614L422.78558 423.90143L419.2056 418.78143L414.7656 419.80142L412.12558 422.11142L414.17557 412.4714L412.63556 409.4114L408.03555 404.2914L402.75555 403.61142L401.04556 401.05142L401.89557 393.55142L405.47556 388.95142L404.62555 385.55142L409.56555 381.53143L420.82556 380.00143L422.35556 381.36142L423.54556 383.4114L424.74557 389.0314L427.81558 392.1014L430.1956 391.2514L432.9256 388.0114L439.4056 379.4814L448.4356 378.6314L449.97562 377.4414L450.6556 371.64142L449.63562 364.8214L451.16562 361.92142L455.5956 359.37143L457.47562 353.06143L459.5256 353.06143L462.41562 354.00143L471.6256 363.71143L474.01562 369.85144L473.67563 373.94144L470.60562 380.93143L472.64563 384.85144L471.45563 386.90143L463.7856 384.5114L461.22562 384.8514L460.54562 390.99142L461.5656 393.55142L466.3456 397.47144L472.98563 400.20145L476.74564 398.32144L480.32562 396.11145L483.9056 394.23145L489.8656 396.62146L492.0856 399.18146L491.5756 402.76144L489.3556 406.17145L490.37558 409.92145L492.7656 415.54144L491.06558 418.95145L490.03558 416.05145L489.6956 414.35144L488.1656 414.35144L487.65558 413.16144L488.84558 412.64145L487.4856 411.45145L478.2756 410.60144L477.4256 412.30145L476.3956 414.69147L476.3956 418.61148L474.8656 421.3415L477.2556 425.9415L478.6156 427.6515L480.8356 433.4415L463.2756 432.9315L455.7756 439.4115L449.1256 441.1115L444.1756 446.06152L444.00558 449.47153L446.05557 453.73154L445.37558 458.16153L439.74557 457.99152L437.35556 455.78152L435.82556 453.0515L431.39557 447.7615L426.61557 445.8915L422.98557 446.86142z" stroke="none" fill="#000000" fill-rule="nonzero" />
    <path d="M196.84557 185.49142L196.88556 185.43143L198.13556 183.99142L198.07556 183.48143L210.98557 186.49142L211.27556 184.57143L208.20555 182.07143L208.87555 180.83142L212.42555 176.80142L218.17555 176.51143L218.71555 175.65143L220.48555 179.48143L222.68555 179.77142L228.24554 183.90143L231.22554 182.84143L235.91554 176.90143L237.35555 177.18143L238.98555 181.88142L240.61555 183.13142L240.81555 187.73143L236.97556 191.28143L240.61555 194.54143L239.85556 198.38142L235.15556 198.18143L232.37556 195.98143L229.30556 198.09143L220.76556 199.05144L219.04556 199.81143L210.60556 200.68143L208.68556 199.72142L208.01556 197.90141L211.08557 195.02141L211.08557 193.5814L207.34557 190.90141L197.56557 188.88141L196.84557 185.49142z" stroke="none" fill="#000000" fill-rule="nonzero" />
    <path d="M493.66556 431.64142L492.09555 434.20142L480.49554 432.3514L478.61554 427.6514L477.25555 425.9414L474.86554 421.3414L476.39554 418.6114L476.39554 414.69138L477.42554 412.30136L478.27554 410.60135L487.48553 411.45135L488.84552 412.64136L487.65552 413.16135L488.16553 414.35135L489.69553 414.35135L490.03552 416.05136L491.06552 418.95135L491.2455 427.86136L492.9555 431.46136L493.66556 431.64142z" stroke="none" fill="#000000" fill-rule="nonzero" />
    <path d="M89.565575 30.341415L90.955574 29.741415L99.715576 34.091415L96.565575 42.711414L106.62557 49.701416L107.71557 52.981415L105.31557 60.851414L108.15556 63.911415L107.49556 65.88142L103.99556 69.161415L99.84556 68.50141L97.87556 72.441414L93.075554 72.00141L87.38555 67.85141L86.95555 65.22141L89.13555 60.851414L88.045555 59.761414L85.20556 58.891415L81.70556 60.631416L80.835556 63.041416L76.89555 65.661415L76.02555 82.49142L66.365555 93.86142L62.575554 96.40142L59.495552 94.94142L55.855553 90.97142L59.355553 89.33142L61.31555 90.061424L62.335552 88.241425L55.405552 86.08142L55.745552 83.35142L54.155552 79.371414L51.195553 77.33141L49.935555 77.801414L50.175556 81.301414L49.265556 82.67142L46.825558 82.701416L44.945557 79.71142L44.945557 75.621414L38.585556 70.621414L35.175556 69.82141L35.055557 67.78141L31.645557 65.05141L26.415558 62.091408L24.145557 62.091408L21.245558 65.41141L19.445559 65.64141L18.575558 61.07141L16.415558 61.41141L15.0255575 64.89141L13.465557 64.941414L12.325557 60.841415L10.295557 62.401417L10.395557 65.28142L9.145557 66.301414L6.755557 62.551414L2.125557 61.541416L0.27555692 55.841415L4.595557 49.481415L9.145557 48.801414L9.145557 41.071415L11.865558 39.591415L13.235558 40.041416L20.165558 51.071415L27.445559 50.961414L28.695559 49.141415L27.55556 47.891415L28.015558 41.981415L26.415558 35.611416L23.575558 30.501415L33.465557 29.591415L35.855556 22.771416L37.895557 23.221416L43.13556 28.701416L54.15556 36.521416L56.54556 36.631416L62.45556 31.861416L67.115555 35.501415L69.045555 34.591415L66.99555 23.451416L69.615555 21.741417L76.655556 24.471416L81.44556 28.491417L89.565575 30.341415z" stroke="none" fill="#000000" fill-rule="nonzero" />
    <path d="M371.46558 527.5514L369.58557 524.65137L370.27557 522.1014L375.7256 520.2214L381.0156 516.64136L392.6056 504.88135L395.50558 504.19135L402.49557 506.58136L407.10556 512.69135L407.69556 515.62134L411.61557 516.81134L409.64557 520.49133L404.11557 521.02136L396.86557 525.33136L399.25558 538.12134L402.83557 542.1613L405.73557 551.7613L404.03555 559.5513L399.42557 562.5013L398.23557 564.72125L397.72556 566.59125L399.63556 568.73126L388.51556 565.91125L382.37555 560.6213L377.09555 562.67126L375.72556 565.91125L367.88556 564.72125L361.06555 567.10126L357.99554 566.59125L358.16556 563.1813L354.92557 555.6813L358.16556 554.8313L364.13556 555.6813L380.33557 551.2513L382.03558 550.5713L384.4256 544.4313L383.3956 540.85126L375.3856 535.5613L373.1756 530.11127L371.3256 529.4413L371.46558 527.5514z" stroke="none" fill="#000000" fill-rule="nonzero" />
    <path d="M327.59558 734.2014L327.59558 736.7614L316.65558 739.47144L313.4156 741.6914L311.8856 740.84143L310.5256 735.3914L310.0156 723.29144L311.03558 721.24146L318.8856 719.54144L323.0556 722.1315L327.5956 734.2015L327.59558 734.2014zM318.3556 614.7514L318.0156 618.5014L318.0856 618.5014L317.5056 619.5214L310.17563 620.7114L308.29562 622.42145L307.7856 631.11145L305.3956 636.5715L306.4156 638.4515L307.2656 654.6515L312.2056 659.4215L313.3956 662.1515L311.3456 664.8815L310.1556 665.9015L308.6256 665.7315L299.5856 665.5615L298.22562 666.7515L300.2756 677.6615L302.1556 680.0515L311.0256 681.76154L316.3156 688.9215L319.04562 685.6815L321.77563 687.7315L321.77563 693.01154L323.13562 695.91156L326.7156 698.8116L326.2056 702.3916L324.50558 702.9016L323.8256 705.3516L320.0756 705.7116L314.62558 707.2516L308.99557 706.91156L303.71558 704.6916L297.06558 704.1816L290.4156 699.0716L288.02557 699.2416L286.6656 700.60156L286.8356 715.9416L289.22562 721.0616L289.22562 730.78156L284.6256 736.2416L284.6256 739.8216L287.1856 742.8916L288.7156 745.1116L288.5456 747.84155L286.4956 748.52155L284.44562 750.0516L284.44562 752.03156L280.61563 752.35156L274.13562 761.73157L273.45563 768.5516L269.63562 767.4516L267.7856 765.6616L266.07562 760.8216L266.21564 751.5716L262.65564 749.1516L262.79565 743.7516L256.67566 742.9016L252.69566 737.5016L248.99567 736.0816L251.55566 730.9616L253.68567 730.8216L255.67567 727.6916L261.64566 727.2616L264.06567 724.7016L262.78568 718.5816L265.2057 713.6016L263.78568 704.0716L260.7957 697.9516L261.50568 691.6916L258.09567 689.8416L253.97568 678.8216L254.82568 660.1816L252.12569 650.22156L252.9757 646.2416L251.26569 639.1316L247.28569 633.0116L248.8557 629.7416L249.28569 621.21155L248.14569 618.22156L251.4157 613.95154L251.2357 611.98157L260.7457 609.5016L268.5857 610.0116L273.8757 612.4016L275.7557 611.0416L281.5557 610.5316L284.1157 613.43164L288.2057 617.52167L290.0857 617.8617L299.8057 615.8117L305.4357 617.1717L307.1457 608.8217L311.91568 607.8017L314.13568 606.1017L315.9857 604.9017L318.22568 606.1017L318.35568 614.7517z" stroke="none" fill="#000000" fill-rule="nonzero" />
    <path d="M321.17557 277.34143L321.59558 292.88144L330.12558 295.95145L331.99557 297.99146L330.6356 299.53146L328.0756 300.89145L326.2056 306.52145L319.5556 307.88144L315.6356 313.34143L307.1056 316.92142L306.4256 318.7914L312.0556 320.67142L314.2656 328.17142L312.56558 334.99142L307.27557 335.50143L304.03558 340.27142L291.93558 346.0714L282.3856 347.0914L279.99557 345.5714L280.51556 344.8814L269.25555 339.7614L263.29556 339.5914L258.69556 334.4814L254.42555 334.4814L249.31555 331.92142L247.60555 330.90143L247.43555 326.46143L241.13554 322.43143L248.46555 314.70142L254.76555 302.77142L267.55554 292.20142L268.57553 279.0714L269.40552 276.8414L272.75552 277.5314L287.41553 279.2414L292.87552 282.48138L297.47552 282.9914L304.97552 280.26138L318.44553 278.22137L321.17557 277.34143z" stroke="none" fill="#000000" fill-rule="nonzero" />
    <path d="M352.79556 448.0414L358.84555 448.1014L364.13556 450.1514L367.03555 452.2014L368.56555 457.6514L371.29556 460.3814L375.38556 460.2114L377.43555 459.0214L377.43555 453.3914L378.96555 449.6414L381.52554 446.91138L383.91556 446.23138L390.04556 449.3014L392.26556 451.6814L394.31555 456.9714L392.94556 463.7914L393.53555 463.77142L393.79556 467.03143L398.91556 475.89142L398.91556 478.7914L400.61557 483.9114L405.39557 483.9114L411.70557 478.45142L414.76556 478.45142L417.15558 479.30142L418.00558 481.69144L418.1756 488.68143L416.6456 493.7914L415.7956 506.58142L417.15558 509.30142L414.61557 509.6014L414.53558 512.3114L411.61557 516.8114L407.69556 515.6214L407.10556 512.6914L402.49557 506.58142L395.50558 504.1914L392.6056 504.8814L381.0156 516.6414L375.7256 520.22144L370.27557 522.10144L369.58557 524.6514L371.46558 527.55145L371.29556 529.7714L368.05557 530.79144L363.79556 529.7714L357.65555 526.0214L341.97556 522.10144L335.66556 517.3214L329.69556 519.8814L322.44556 515.9614L323.72556 515.11145L329.69556 507.60144L329.18555 500.10144L332.42554 495.67145L333.27554 492.26144L331.05554 469.24146L332.08554 469.24146L334.98553 469.24146L337.87555 465.49146L338.39554 459.70145L337.36554 457.82144L340.26553 450.66144L343.67554 450.32144L345.04553 453.73145L347.42554 453.56143L348.10553 451.51144L351.00552 449.47144L352.79556 448.0414z" stroke="none" fill="#000000" fill-rule="nonzero" />
    <path d="M451.16556 361.92142L449.63556 364.8214L450.65555 371.64142L449.97556 377.4414L448.44556 378.6314L439.41556 379.4814L432.93555 388.0014L430.20554 391.2414L427.81552 392.0914L424.7455 389.0214L423.5555 383.3914L422.3655 381.3414L420.8355 379.9814L413.1655 380.6614L409.5855 381.5114L404.6455 385.5314L402.0855 385.6914L400.3855 385.1814L400.0455 382.2814L401.4055 375.6314L407.71548 375.2914L411.1255 372.7314L423.05548 373.7514L426.29547 368.9814L426.46548 366.42142L425.1955 365.15143L427.4355 361.0114L437.95547 352.74142L442.31546 346.13144L449.99545 342.65143L455.10544 344.0114L460.39545 351.3414L459.54544 353.0514L457.47543 353.0514L455.60544 359.3614L451.16544 361.9214L451.16556 361.92142zM406.84555 308.46143L406.84555 310.36142L410.93555 314.28143L411.10556 315.82144L413.83557 318.04144L417.24557 318.04144L417.58557 320.60144L415.71558 323.16144L427.30557 325.21143L432.81558 324.2314L438.3856 320.8214L438.3856 320.8714L441.4556 324.2814L447.7656 326.67142L442.1456 328.59143L438.3456 331.74142L435.1456 340.22144L430.7156 345.68143L423.8956 347.21143L417.75558 356.25143L417.24557 358.81143L415.54556 359.32144L413.84555 360.34143L409.75555 362.90143L407.02554 362.05142L400.37555 363.59143L393.72556 363.25143L390.99554 361.55142L389.46555 357.97144L389.12555 351.15143L387.76556 349.45142L382.99557 349.2814L379.4156 350.9914L377.5456 354.23138L378.7356 355.25137L378.2256 357.13138L376.1756 357.6414L374.3056 354.0614L364.0056 350.8214L367.6556 346.7314L369.3656 346.7314L370.0456 342.4714L368.06558 338.67142L369.1956 337.86142L369.1956 322.3514L370.7256 319.2814L372.08557 317.92142L378.73557 319.80142L384.87558 317.58142L389.99557 314.00143L394.42557 312.64145L399.02557 310.59146L406.84558 308.46146z" stroke="none" fill="#000000" fill-rule="nonzero" />
    <path d="M480.49557 432.3514L492.09558 434.20142L493.6656 431.64142L494.3256 431.80142L496.2056 431.80142L496.3756 434.37143L500.1456 437.62143L502.7056 438.13144L503.0456 436.42145L507.6756 438.31146L509.8956 437.62146L511.0956 427.86145L512.46564 427.01144L515.03564 427.01144L516.74567 428.89145L515.8857 431.29144L517.0857 432.14145L524.4457 431.80145L524.9557 440.19147L530.7757 452.85147L526.49567 461.41147L524.2757 462.78146L523.9857 465.93146L523.4157 466.03146L521.7057 471.34146L516.4057 472.54147L513.1457 476.65146L504.2457 476.82147L496.2057 483.83148L490.38568 481.61148L480.7957 489.14148L485.59567 494.27148L477.03568 499.4115L477.5457 504.0315L485.60568 513.2315L483.5557 513.4015L478.5157 519.8915L476.8057 529.31146L473.6757 530.11145L470.60568 525.16144L470.09567 520.3914L468.0457 516.6414L466.0457 515.1814L463.44568 515.4414L460.2057 518.8614L459.5257 521.4114L459.1757 524.3114L461.7357 531.6414L461.03568 533.8214L453.61566 534.6514L450.99567 537.61145L448.09567 544.2615L443.32568 544.2615L440.93567 541.5315L441.79565 535.9015L446.39566 529.2615L445.37567 524.99146L448.09567 510.33145L447.07568 507.95145L448.75568 507.44144L447.58566 500.61145L444.68567 496.86145L439.06567 497.55145L436.2957 499.89145L434.35568 507.24146L419.12567 507.92145L417.15567 509.30145L415.7957 506.58145L416.6457 493.79144L418.1757 488.68146L418.00568 481.69147L417.15567 479.30145L414.76566 478.45145L411.70566 478.45145L405.39566 483.91144L400.61566 483.91144L398.91565 478.79144L398.91565 475.89145L393.79565 467.03146L393.53564 463.77145L403.17566 464.47147L406.07565 461.57147L411.87564 458.16147L417.66565 454.41147L422.44565 448.62146L422.98566 446.86145L426.61566 445.89145L431.39566 447.76144L435.82565 453.05145L437.35565 455.78146L439.74567 457.99146L445.37567 458.16147L446.05566 453.73148L444.00568 449.47147L444.1757 446.06146L449.1257 441.11145L455.7757 439.41144L463.2757 432.93143L480.8357 433.44144L480.49557 432.3514z" stroke="none" fill="#000000" fill-rule="nonzero" />
    <path d="M251.22557 611.9514L254.61557 603.8214L255.03557 593.6914L256.21558 592.3014L255.99557 588.3514L252.15558 583.6614L251.40558 578.96136L254.82558 576.08136L253.75557 572.99133L254.39557 571.2813L258.34558 567.55133L263.14557 565.74133L264.21558 561.57135L266.98557 559.33136L263.14557 551.01135L267.62558 545.14136L268.4756 541.62134L270.7256 538.96136L270.83557 536.0314L286.90558 535.5614L292.1956 540.6814L300.71558 542.5514L303.4456 540.8514L304.12558 538.9714L304.12558 536.76135L302.0756 535.2214L303.1056 534.0314L306.8556 531.3014L310.7756 530.96136L312.6456 535.56134L309.2356 539.14136L309.9256 541.19135L316.9156 547.6713L319.12558 548.01135L319.61557 548.01135L316.48557 554.40137L316.48557 558.83136L327.05557 565.14136L327.05557 575.20135L325.86557 584.9213L324.32556 587.13135L316.48557 585.6013L312.05557 589.69135L316.14557 601.1113L315.63556 604.69135L315.94556 604.8613L314.09555 606.06134L311.88556 607.76135L307.10556 608.7914L305.40555 617.14136L299.77554 615.7814L290.05554 617.82135L288.18555 617.4813L284.09555 613.3913L281.53555 610.4913L275.73557 611.0013L273.86557 612.3713L268.57556 609.98126L260.73557 609.47125L251.22557 611.9514z" stroke="none" fill="#000000" fill-rule="nonzero" />
    <path d="M417.92557 359.62143L416.97556 358.85144L415.53555 359.28143L413.83554 360.30142L409.73553 362.86142L407.01553 362.0114L400.36554 363.5414L393.71555 363.20142L390.98553 361.5014L389.45554 357.92142L389.11554 351.1014L387.74554 349.39142L382.97556 349.2214L379.39557 350.9314L377.51556 354.1714L378.71558 355.19138L378.20557 357.07138L376.15558 357.5814L374.27557 354.0014L371.7256 353.8314L366.2656 350.76138L363.9756 350.76138L363.3656 355.19138L361.3256 359.4514L351.7756 361.16138L346.3156 364.74136L344.6156 366.95135L344.2756 370.70135L346.4856 375.65137L346.3756 375.84137L361.32562 388.52136L362.3456 393.63135L364.9056 395.34134L372.91562 396.87134L378.0256 400.62134L379.9056 412.56134L384.16562 418.36133L392.5256 418.87134L401.72562 425.34134L407.35562 426.71133L411.44562 425.69135L412.1256 422.11136L414.1756 412.47134L412.6356 409.41135L408.03558 404.29135L402.75558 403.61136L401.0456 401.05136L401.8956 393.55136L405.4756 388.95135L404.62558 385.54135L400.36557 385.20135L401.38556 375.65137L407.69556 375.31137L411.10556 372.75137L423.03555 373.77136L426.27554 369.00137L426.44556 366.44138L424.40555 364.40137L417.92557 359.62143z" stroke="none" fill="#000000" fill-rule="nonzero" />
    <path d="M141.98557 77.521416L143.12556 76.81142L145.31557 68.07142L143.56557 61.95142L144.21556 59.10142L144.87556 56.70142L150.99556 50.58142L149.46556 45.11142L150.77556 43.371418L156.02556 41.621418L160.39555 44.02142L168.91556 42.27142L171.75555 41.40142L179.62555 35.50142L185.30554 36.371418L189.46555 41.401417L194.27554 42.05142L203.45554 31.131418L215.90553 30.271418L218.57553 39.36142L209.89554 46.21142L208.80554 50.14142L216.89554 53.64142L221.92554 58.45142L216.23553 64.79142L213.17554 64.79142L209.67554 66.53142L205.30554 68.50142L190.44554 76.81142L188.91554 82.93142L183.66554 89.92142L183.23555 93.42142L170.33556 102.601425L170.55556 104.57143L180.82556 114.18143L180.17557 116.811424L178.20557 118.34142L174.48557 118.34142L172.74556 118.34142L170.99556 116.811424L170.99556 114.84142L163.56557 115.711426L154.81557 109.59142L151.62556 109.16142L151.64557 108.72142L148.80557 106.10142L149.68558 102.161415L148.80557 100.201416L149.02557 86.21141L146.83557 82.93141L142.46558 80.74141L141.98557 77.521416z" stroke="none" fill="#000000" fill-rule="nonzero" />
    <path d="M237.32558 131.23141L241.81558 143.15141L241.37558 147.74141L238.96558 150.1414L237.87558 153.4214L237.87558 155.6014L230.66557 169.16139L226.72557 166.97139L226.50557 164.5714L221.70557 167.41139L219.51556 170.69139L217.11557 173.31139L214.48557 170.03139L210.11557 169.59138L203.99557 171.34138L201.15558 170.69139L184.76558 151.45139L180.17558 149.48138L173.17558 148.83139L169.24559 145.33139L169.24559 137.6814L166.1856 130.0314L170.77559 128.2814L172.52559 125.6614L172.30559 121.7214L173.83559 118.3414L174.48558 118.3414L178.20558 118.3414L180.17558 116.8114L180.82558 114.181404L170.55557 104.5714L170.33557 102.6014L183.23557 93.421394L183.66556 89.921394L188.91556 82.9314L190.44556 76.81139L205.30556 68.501396L208.11555 67.241394L210.55556 68.501396L214.48555 77.6814L226.50555 78.781395L241.37555 93.421394L248.14555 104.1314L247.49556 111.1214L245.08556 112.4414L243.99556 116.8114L238.96556 116.8114L237.87556 120.3014L233.28557 123.8014L236.56557 131.2314L237.32558 131.23141z" stroke="none" fill="#000000" fill-rule="nonzero" />
    <path d="M449.97556 342.6614L442.29556 346.14142L437.93558 352.7514L427.4156 361.0214L425.1756 365.1614L417.9256 359.6214L416.9856 358.8514L417.2456 358.77142L417.7556 356.21143L423.89563 347.17142L430.71564 345.64142L435.14563 340.18143L438.34564 331.70142L442.14563 328.55142L447.76562 326.6314L454.92563 325.7814L455.94562 323.7314L460.7156 321.86142L466.5156 317.09143L468.56558 316.41144L469.75558 317.60144L466.68558 323.57144L461.40558 325.79144L457.99557 331.08145L457.99557 333.30145L454.07556 335.01144L449.81555 338.93146L448.79556 341.66147L449.97556 342.66147L449.97556 342.6614zM438.55554 297.14142L443.66553 297.31143L446.22552 295.09143L459.5255 292.19144L462.4255 291.00143L465.8355 287.10144L467.15552 290.36145L467.0255 291.52145L449.2955 299.53146L448.2755 302.26147L442.1355 304.14148L438.3855 310.2815L438.5555 316.9315L438.3855 320.80148L432.8155 324.2115L427.30548 325.1915L415.71548 323.1515L417.5955 320.5915L417.2555 318.0315L413.8455 318.0315L411.11548 315.8115L410.94547 314.2815L406.85547 310.36148L406.85547 308.4615L412.31546 305.7515L413.33545 301.83148L408.05545 292.9715L408.56546 289.5615L415.38547 289.5615L415.55548 285.9815L419.13547 282.40152L420.66547 282.06152L423.84546 281.04153L428.67545 284.54153L434.13544 290.00153L436.52545 296.31152L438.55545 297.1415z" stroke="none" fill="#000000" fill-rule="nonzero" />
    <path d="M106.75557 50.111416L110.55557 41.181416L117.55557 38.781414L119.955574 36.151413L123.885574 36.371414L124.54558 44.021416L123.01558 46.211414L122.14558 52.331413L124.54558 61.731415L135.25558 73.31142L141.81558 76.371414L142.46558 80.74142L146.83557 82.93142L149.02557 86.21142L148.80557 100.20142L149.68558 102.16142L148.80557 106.101425L151.64557 108.72143L151.42557 112.44143L145.52557 119.43143L136.56557 125.11143L133.94557 125.11143L130.66557 123.15143L126.94557 123.58143L124.54557 128.83142L121.48557 129.70142L115.58557 125.11142L110.11557 125.33142L105.52557 128.39142L102.465576 140.19142L98.97558 144.35143L93.285576 145.88142L92.91557 143.71143L88.57558 139.88142L91.43558 135.18143L90.86558 133.48143L84.90558 131.08144L84.61558 129.50143L86.77558 127.45143L83.06558 125.931435L81.88558 127.791435L78.72558 127.05144L78.59558 125.41144L81.66558 122.111435L81.09558 120.63143L75.65558 119.67143L74.91558 115.53143L68.755585 110.88143L67.90559 105.40143L69.83559 100.97143L69.38559 97.561424L66.36559 93.86143L76.02559 82.491425L76.89559 65.66142L80.835594 63.041424L81.7056 60.631424L85.2056 58.891422L88.04559 59.76142L89.13559 60.85142L86.95559 65.22142L87.38559 67.85142L93.07559 72.00142L97.875595 72.44142L99.8456 68.50142L103.9956 69.16142L107.4956 65.881424L108.1556 63.911423L105.315605 60.85142L107.71561 52.981422L106.75557 50.111416z" stroke="none" fill="#000000" fill-rule="nonzero" />
    <path d="M165.06557 294.14142L159.94557 292.03143L160.27557 288.91144L163.39557 283.64145L162.90556 282.00143L159.28557 280.19144L161.91557 270.48145L158.13557 268.34143L155.99557 264.73145L153.03557 266.37146L143.49557 260.78146L142.34558 258.64145L142.34558 253.05145L139.37558 250.91145L135.99557 239.80145L146.25557 230.50145L154.40556 225.52145L157.47557 225.13145L162.94557 228.20146L166.01558 227.72147L174.83557 208.73146L178.66557 203.55147L180.29558 203.46147L185.66557 207.77147L189.69557 205.86147L194.20557 198.09146L195.64557 187.16147L196.84557 185.49147L197.56557 188.88147L207.34557 190.90147L211.08557 193.58147L211.08557 195.02147L208.01556 197.90147L208.68556 199.72148L210.60556 200.68149L219.04556 199.8115L219.94556 199.4115L222.97556 201.5015L222.97556 204.0615L218.71556 209.51149L219.73557 212.41148L226.55557 221.96149L232.35558 225.71149L232.52557 228.26149L229.79558 230.99149L224.67558 232.53148L223.48558 242.24149L214.96558 248.38148L214.96558 251.45149L216.15558 252.13148L228.94557 252.13148L229.62556 255.20149L226.72557 263.3815L223.99557 265.2615L221.43558 264.9215L216.83557 263.0415L213.93558 263.5515L212.57558 265.09152L212.57558 272.4215L209.67558 276.1715L198.93558 275.49152L191.60558 276.5115L186.83557 280.43152L178.13557 282.99152L171.65558 293.0515L165.06557 294.14142z" stroke="none" fill="#000000" fill-rule="nonzero" />
    <path d="M240.06557 131.23141L259.95557 131.45142L272.41556 135.17142L279.62555 129.70142L283.55554 129.27142L291.20554 132.76143L308.03552 133.64143L313.93552 126.42143L326.3955 117.90143L327.7055 114.40143L325.0855 110.91143L320.0855 108.04143L321.9555 106.711426L323.4455 96.17142L327.2255 95.29142L332.33548 96.99142L335.23547 102.45142L344.95547 103.47142L347.00546 105.17142L347.34546 107.90142L341.88547 111.48142L338.30548 109.101425L337.2855 114.04143L334.3855 117.45143L327.7355 121.88143L328.4155 124.10143L333.02548 128.53143L335.4055 128.53143L337.11548 127.681435L341.3755 120.01144L346.48547 120.69144L351.94547 123.251434L359.61548 132.45143L361.32547 132.79143L361.66547 135.35143L360.98547 137.05142L358.76547 137.91142L358.25546 143.53142L351.77545 148.65141L351.77545 156.49141L343.08545 159.2214L341.71545 160.7514L341.88547 165.5314L337.62546 167.0614L335.40546 165.7014L336.94547 162.9714L336.60547 159.5614L333.53546 156.1514L329.61545 154.6114L322.96545 155.9814L313.07544 161.9514L310.85544 170.6414L307.10544 172.8614L307.10544 178.99141L309.15543 179.68141L314.43542 177.63141L318.53543 179.68141L324.83542 196.90141L324.3254 199.45142L321.9354 201.67142L317.1654 204.23141L315.2954 209.34142L311.8854 209.17142L306.5954 206.27142L305.0654 206.44142L301.9354 210.22142L300.20538 208.49142L281.6254 195.70143L268.3254 184.79143L237.87541 155.43143L237.87541 153.42143L238.96541 150.14143L241.37541 147.74144L241.81541 143.15144L237.32541 131.23145L240.06557 131.23141z" stroke="none" fill="#000000" fill-rule="nonzero" />
    <path d="M297.04556 704.17145L303.69556 704.68146L308.98557 706.9014L314.61557 707.24146L320.07556 705.7114L322.34555 705.8114L320.49554 715.2614L318.09555 716.3114L318.88556 719.5314L311.03555 721.2414L310.01556 723.2914L310.52557 735.39136L311.88556 740.8514L313.42557 741.70135L316.66556 739.4814L327.61557 736.77136L327.18558 738.3414L320.92557 741.4714L321.18558 745.7914L323.06558 746.2214L323.9156 748.44135L324.0856 752.70135L314.8756 757.13135L310.10562 755.94135L305.67563 756.7913L292.20563 751.8513L284.44562 752.0413L284.44562 750.06134L286.4956 748.5313L288.5456 747.8513L288.7156 745.12134L287.1856 742.90137L284.6256 739.83136L284.6256 736.25134L289.22562 730.80133L289.22562 721.08136L286.8356 715.9714L286.6656 700.63135L290.4156 699.1013L297.0456 704.1713L297.04556 704.17145zM362.65558 665.56146L364.64557 669.5715L364.47556 673.8315L361.06555 676.56146L352.20557 679.97144L350.88556 681.9514L348.88556 680.5614L339.50555 684.6514L337.80554 685.3314L333.88553 686.0114L325.36554 679.1914L324.51553 676.4614L325.02554 672.54144L327.41556 671.18146L332.87555 671.69147L348.04556 667.2615L362.65555 665.56146zM318.70557 665.56146L317.68558 669.6515L315.46558 671.3615L312.39557 672.7215L310.52557 672.2115L308.4756 667.6115L308.7256 665.7415L310.18558 665.9015L311.37558 664.8815L312.78558 663.0115L314.78558 663.0115L318.7056 665.56146zM322.44556 515.9614L329.70557 519.8814L335.67557 517.3214L341.98557 522.09143L357.67557 526.0114L363.81558 529.7614L368.0756 530.78143L371.31558 529.7614L371.34558 529.4414L373.1956 530.1114L375.4156 535.5714L383.4256 540.8614L384.4456 544.4414L382.05557 550.5814L380.35556 551.2614L364.15555 555.6914L358.18555 554.84143L354.94556 555.6914L358.18555 563.1914L358.01553 566.6014L361.08554 567.1114L367.90555 564.7214L375.74554 565.9114L377.10553 562.6714L382.39554 560.6214L388.53555 565.9114L399.65555 568.7314L400.21555 571.8114L407.12555 576.5214L405.83554 577.7614L394.92554 588.5014L391.00552 595.1514L391.34552 600.09143L393.73553 610.66144L389.47552 612.19147L381.12552 618.3315L380.10553 625.8315L381.12552 627.0215L384.87552 626.5115L386.06552 632.6515L386.90552 638.8615L370.88553 642.3015L368.16553 635.39154L363.73553 629.08154L361.68555 626.35156L357.25555 624.48157L352.31555 626.53156L351.29556 629.9415L355.89557 643.4115L355.89557 645.4615L354.36557 646.1415L343.96558 646.6515L333.39557 654.1515L329.64557 654.3215L325.21558 650.23145L320.27557 648.35144L319.59558 643.41144L322.15558 642.56146L323.68558 642.56146L328.28558 642.73145L329.30557 640.34143L329.30557 637.78143L327.43558 636.2514L318.5756 633.5214L318.5756 631.6514L323.00558 629.43146L325.05557 625.00146L325.39557 622.2715L323.34558 616.99146L321.64557 616.48145L319.42557 618.53143L318.06558 618.53143L318.40558 614.78143L318.23557 606.09143L315.67557 604.73145L316.18558 601.1514L312.09558 589.73145L316.52557 585.6414L324.36557 587.17145L325.90558 584.9515L327.09558 575.2315L327.09558 565.1715L316.52557 558.8615L316.52557 554.4315L319.65558 548.0415L322.06558 548.0415L325.4756 547.7015L330.24557 545.1415L331.26556 541.56146L329.73557 534.5715L321.04556 524.5115L320.02557 518.5415L321.7256 516.5015L322.4456 515.96155z" stroke="none" fill="#000000" fill-rule="nonzero" />
    <path d="M135.99557 239.80142L130.33557 237.09142L125.89557 227.72142L114.54557 217.69142L114.705574 214.07143L111.425575 210.61142L111.58558 208.64142L107.965576 205.51141L109.11558 203.71141L112.90558 202.88141L113.88558 201.07141L112.53558 193.73141L113.84558 192.24141L122.56558 180.0614L124.19558 173.4414L126.02558 172.77141L130.52557 175.74141L132.82558 175.46141L142.70558 167.5014L145.20558 166.7314L170.42558 174.7914L175.50558 174.5914L180.77559 170.6614L187.8756 168.9414L197.94559 182.3614L198.13559 183.99141L196.88559 185.43141L195.64558 187.1614L194.20558 198.0914L189.69559 205.8614L185.66559 207.77141L180.2956 203.46141L178.66559 203.5514L174.83559 208.7314L166.0156 227.7214L162.94559 228.2014L157.47559 225.1314L154.40558 225.5214L146.25558 230.50139L135.99557 239.80142z" stroke="none" fill="#000000" fill-rule="nonzero" />
    <path d="M286.47556 367.2914L290.91556 367.4714L298.24554 372.92142L303.35553 369.8514L307.44553 371.7314L312.56552 368.49142L315.12552 370.36142L319.18552 371.21143L330.03552 400.88144L333.44553 401.22144L344.87552 415.03143L347.25552 415.54144L349.81552 413.33145L352.37552 413.50146L359.0255 424.58145L359.7055 429.01144L355.2655 434.47144L355.2655 438.73145L357.9955 439.24146L357.8255 443.16147L353.5655 447.42148L351.0055 449.47147L348.1055 451.51147L347.4255 453.56146L345.0455 453.73148L343.6755 450.32147L340.2655 450.66147L337.3655 457.82147L338.3955 459.70148L337.87552 465.4915L334.9855 469.2415L332.0855 469.2415L325.6055 469.2415L315.3755 469.9315L306.6855 461.23148L304.9755 460.89148L300.71548 464.47147L294.9155 466.18146L294.74548 468.56146L297.64548 472.31146L297.30548 482.03146L295.2555 485.10147L287.58548 485.27148L284.6855 483.57147L280.5955 476.58148L276.80548 476.7515L272.9755 478.6315L267.0455 460.9515L263.2655 453.71152L261.6255 441.21152L255.8655 434.3015L256.02548 431.5115L253.06548 428.2215L252.73547 422.1315L251.09547 419.1715L251.58548 411.9415L249.77548 409.9615L252.90549 407.4915L253.0055 404.4615L254.0855 403.86148L261.24548 408.8115L263.80548 406.42148L271.13547 407.78146L275.05548 407.10147L274.0355 388.01147L278.9755 384.77148L285.7955 383.7515L286.4755 375.2215L284.9455 370.7915L286.30548 367.5515L286.47556 367.2914z" stroke="none" fill="#000000" fill-rule="nonzero" />
    <path d="M412.12558 422.11142L414.7656 419.80142L419.2056 418.78143L422.78558 423.90143L424.14557 432.7614L423.29556 445.89142L422.44556 448.62143L417.66556 454.41144L411.87555 458.16144L406.07556 461.57144L403.17557 464.47144L392.94556 463.79144L394.31555 456.97144L392.26556 451.68143L390.04556 449.30142L383.91556 446.2314L381.52554 446.9114L378.96555 449.64142L377.43555 453.39142L377.43555 459.02142L375.38556 460.21143L371.29556 460.38144L368.56555 457.65143L367.03555 452.20142L364.13556 450.15143L358.84555 448.10144L352.79556 448.04144L353.56555 447.42145L357.82556 443.16144L357.99557 439.24142L355.26556 438.7314L355.26556 434.4714L359.70557 429.0114L359.02557 424.58142L352.37558 413.50143L349.81558 413.33142L347.25558 415.5414L344.87558 415.0314L333.4456 401.2214L330.03558 400.8814L319.18558 371.2114L319.21558 371.2214L320.9156 369.0014L322.62558 369.17142L324.3256 374.46143L326.37558 375.65143L332.1656 383.66144L336.77557 386.22144L339.67557 386.22144L340.35556 385.20145L338.81555 383.32144L340.35556 377.86145L345.46555 377.35144L346.37555 375.84143L361.32556 388.52142L362.34555 393.6314L364.90555 395.3414L372.91556 396.8714L378.02554 400.6214L379.90555 412.5614L384.16556 418.3614L392.52554 418.8714L401.72556 425.3414L407.35556 426.7114L411.44556 425.6914L412.12558 422.11142z" stroke="none" fill="#000000" fill-rule="nonzero" />
    <path d="M270.83557 536.03143L270.50558 533.5714L274.61557 528.47144L274.45557 525.67145L272.80557 524.5214L273.62558 518.60144L267.0456 509.39145L267.0456 507.41144L270.6656 500.18143L270.0156 491.7914L273.7956 484.39142L272.9756 478.6314L276.80557 476.7514L280.59558 476.5814L284.68558 483.57138L287.58557 485.2714L295.25558 485.10138L297.30557 482.03137L297.64557 472.31137L294.74557 468.56137L294.9156 466.18137L300.71558 464.47137L304.9756 460.8914L306.68558 461.23138L315.37558 469.9314L325.6056 469.2414L331.0556 469.2414L333.2756 492.26138L332.4256 495.6714L329.1856 500.10138L329.69562 507.60138L323.72562 515.1114L321.6856 516.4714L319.97562 518.51135L321.0056 524.4813L329.69562 534.5413L331.23563 541.5313L330.20563 545.1113L325.43564 547.6713L322.02563 548.01135L319.12564 548.01135L316.91565 547.6713L309.92566 541.19135L309.23566 539.14136L312.64566 535.56134L310.77567 530.96136L306.85565 531.3014L303.10565 534.0314L302.07565 535.2214L304.12564 536.76135L304.12564 538.9714L303.44565 540.8514L300.71564 542.5514L292.19565 540.6814L286.90564 535.5614L270.83557 536.03143z" stroke="none" fill="#000000" fill-rule="nonzero" />
    <path d="M241.13557 322.43143L247.43558 326.46143L247.60558 330.90143L249.31558 331.92142L254.42558 334.4814L258.6956 334.4814L263.2956 339.5914L269.25558 339.7614L280.5156 344.8814L279.4856 346.2414L278.1256 352.04138L273.8656 351.87137L274.2056 354.25137L279.31558 359.03137L285.4556 361.41138L287.6756 365.50137L286.3056 367.55136L284.94562 370.79135L286.47562 375.22134L285.79562 383.75134L278.97562 384.77133L274.0356 388.01132L275.0556 407.10132L271.1356 407.7813L263.8056 406.42133L261.2456 408.81134L254.0856 403.86133L252.90561 404.52133L252.90561 407.49133L249.7756 409.96133L250.6056 407.82132L248.95561 403.05133L248.62561 395.98132L246.65561 392.20132L247.14561 389.40134L242.17561 384.20132L242.49562 376.07132L238.74562 369.77133L226.46562 360.39133L224.59563 354.76132L223.91563 347.43134L227.49564 343.68134L229.70564 339.08133L227.15564 331.24133L228.34564 328.85132L241.13557 322.43143z" stroke="none" fill="#000000" fill-rule="nonzero" />
    <path d="M160.09557 8.671415L160.54556 10.831415L166.00557 11.401415L173.50557 16.741415L176.45557 17.081415L185.15556 11.391415L192.71556 11.401415L197.18556 12.881414L211.55556 23.181416L214.65556 26.291416L215.90556 30.271416L203.45557 31.131416L194.27557 42.051414L189.46558 41.401413L185.30557 36.371414L179.62558 35.501415L171.75558 41.401417L168.91559 42.271416L160.39558 44.021416L156.02559 41.621414L150.77559 43.371414L149.46559 45.111416L150.99559 50.581417L144.8756 56.701416L144.21559 59.101418L143.5656 61.951416L145.3156 68.07142L143.1256 76.81142L141.9856 77.521416L141.8156 76.371414L135.2556 73.31142L124.5456 61.731415L122.1456 52.331413L123.0156 46.211414L124.5456 44.021416L123.8856 36.371414L119.9556 36.151413L117.555595 38.781414L110.555595 41.181416L106.75559 50.111416L106.625595 49.701416L96.5656 42.71142L99.7156 34.09142L103.2556 34.36142L105.5356 32.09142L111.555595 18.45142L115.305595 13.90142L119.3956 11.29142L122.1256 10.49142L128.6056 12.54142L131.4456 17.88142L132.9256 17.77142L135.1956 14.8114195L137.3556 14.471419L143.3856 9.13142L148.3856 9.35142L151.90561 7.1914206L155.54561 0.6014204L157.93561 0.2614204L162.4756 3.4414206L160.09557 8.671415z" stroke="none" fill="#000000" fill-rule="nonzero" />
    <path d="M423.83557 281.03143L420.65558 282.05142L419.11557 282.39142L415.53558 285.9714L415.36557 289.5514L408.54556 289.5514L407.86557 291.26138L413.31558 301.8314L412.2956 305.7514L408.03558 308.3114L398.99557 310.5214L394.39557 312.57138L389.96558 313.93137L384.84558 317.51135L378.71558 319.73135L372.06558 317.85135L370.6956 319.22134L369.1656 322.29135L369.1656 337.80136L367.9756 338.65137L358.7656 335.76135L358.0856 330.13135L355.8656 326.55136L352.7956 326.55136L347.1756 318.71136L347.00558 316.49136L342.05557 312.74136L340.18558 305.92136L341.37558 304.90137L340.18558 303.36136L332.50558 303.87137L328.58557 300.62137L330.63556 299.53137L331.99554 297.99136L330.12555 295.95135L321.59555 292.88135L321.17554 277.34134L322.70554 276.85135L328.50552 272.93134L328.50552 270.37134L326.79553 268.33133L327.13553 265.43134L331.06552 259.63135L344.18552 250.77135L354.07553 248.72134L355.26553 247.53134L354.41553 241.05135L353.05554 237.13135L356.29553 230.48135L356.88553 229.97136L358.93552 230.14136L367.62552 242.24136L373.25552 245.31137L381.09552 244.29137L391.8355 236.11136L398.31552 239.52136L402.57553 244.80136L402.06552 251.79137L409.91553 252.81137L411.92554 252.97137L415.70554 259.63138L421.84555 258.78137L425.93555 264.75137L428.15555 265.43137L429.51553 267.47137L427.64554 273.10138L423.20554 278.22137L423.83557 281.03143z" stroke="none" fill="#000000" fill-rule="nonzero" />
    <path d="M341.50558 207.69142L343.08557 206.27142L348.02557 198.77142L350.06558 197.58142L354.33557 197.58142L361.49557 200.30142L367.79556 199.45142L368.48557 197.24141L365.92557 188.71141L367.62558 185.98141L370.52557 184.79141L379.56558 184.79141L389.96558 175.07141L390.4756 171.32141L393.8856 167.57141L396.6156 161.95142L400.0256 160.41142L402.7556 161.09142L405.13562 162.80142L407.86563 167.57143L408.37564 173.20143L405.64563 180.36143L405.30563 188.03143L406.67563 197.58144L405.81564 212.24144L407.01566 217.18144L405.98566 219.74144L405.98566 233.72144L412.12567 239.18144L412.12567 252.98145L409.91568 252.81145L402.06567 251.79144L402.57568 244.80144L398.31567 239.52144L391.83566 236.11143L381.09567 244.29144L373.25568 245.31145L367.62567 242.24144L358.93567 230.14143L356.88568 229.97144L356.03568 228.09143L341.2057 215.65143L337.7957 214.11143L337.1157 212.58144L339.5057 211.22144L341.50558 207.69142z" stroke="none" fill="#000000" fill-rule="nonzero" />
    <path d="M112.73557 194.51141L104.34557 185.53142L100.89558 177.96141L105.00558 176.48141L104.01558 172.54141L101.22558 172.54141L98.91558 170.73141L100.72558 167.77141L98.26558 163.0014L99.57558 156.7514L97.605576 154.77141L92.66557 154.2814L88.55557 152.1414L90.36557 148.3614L93.28557 145.88141L98.97557 144.35141L102.46557 140.1914L105.525566 128.3914L110.11557 125.331406L115.58557 125.111404L121.48557 129.7014L124.54557 128.8314L126.94557 123.581406L130.66557 123.151405L133.94557 125.111404L136.56557 125.111404L145.52557 119.431404L151.42557 112.44141L151.62556 109.16141L154.81557 109.59141L163.56557 115.71141L170.99556 114.84141L170.99556 116.81141L172.74556 118.34141L173.83556 118.34141L172.30556 121.721405L172.52556 125.66141L170.77556 128.2814L166.18556 130.0314L169.24556 137.6814L169.24556 145.33139L173.17555 148.83139L180.17555 149.48138L184.76555 151.45139L201.15555 170.69139L203.99554 171.34138L210.11554 169.59138L214.48553 170.03139L217.11554 173.31139L217.29553 173.11139L218.94553 175.26138L218.17552 176.51138L212.42552 176.80138L208.87552 180.83138L208.20552 182.07138L211.27553 184.57138L210.98553 186.49138L198.07553 183.48138L197.94553 182.36139L187.87552 168.94139L180.77551 170.66139L175.50551 174.59138L170.4255 174.79138L145.2055 166.73138L142.7055 167.50139L132.8255 175.4614L130.5255 175.7414L126.0255 172.7714L124.195496 173.44139L122.5655 180.06139L113.8455 192.2414L112.73557 194.51141z" stroke="none" fill="#000000" fill-rule="nonzero" />
    <path d="M323.79556 199.94142L324.32556 199.45142L324.83557 196.90141L318.53558 179.68141L314.43558 177.63141L309.15558 179.68141L307.1056 178.99141L307.1056 172.8614L310.8556 170.6414L313.0756 161.9514L322.9656 155.9814L329.6156 154.6114L333.5356 156.1514L336.60562 159.5614L336.94562 162.9714L335.4056 165.7014L337.6256 167.0614L341.88562 165.5314L341.7156 160.7514L343.0856 159.2214L351.7756 156.49141L351.7756 148.65141L358.2556 143.53142L358.76562 137.91142L360.98563 137.05142L361.66562 135.35143L366.60562 134.50142L371.55563 135.69142L378.71564 147.80142L377.17563 150.01143L377.0056 153.08144L378.20563 154.79144L390.98563 157.00145L397.46564 160.92145L396.61563 161.95145L393.88562 167.57144L390.47562 171.32144L389.9656 175.07144L379.5656 184.79144L370.5256 184.79144L367.6256 185.98145L365.9256 188.71144L368.4856 197.24144L367.7956 199.45145L361.4956 200.30145L354.3356 197.58145L350.0656 197.58145L348.0256 198.77145L343.0856 206.27145L341.3756 207.81145L333.3656 200.82144L323.79556 199.94142z" stroke="none" fill="#000000" fill-rule="nonzero" />
    <path d="M220.87556 264.67142L221.43556 264.92142L223.99556 265.2614L226.72556 263.3814L229.62555 255.20142L228.94556 252.13141L216.15556 252.13141L214.96556 251.45142L214.96556 248.38141L223.48557 242.24141L224.67557 232.5314L229.79556 230.99141L232.52556 228.26141L232.35556 225.71141L226.55556 221.96141L219.73555 212.4114L218.71555 209.51141L222.97554 204.06142L222.97554 201.50142L219.94554 199.41142L220.76555 199.05142L229.30554 198.09142L232.37555 195.98141L235.15555 198.18141L239.85555 198.38141L240.61554 194.54141L236.97554 191.28142L240.81554 187.73141L240.61554 183.13141L238.98553 181.88141L237.35553 177.18141L235.91553 176.90141L231.22552 182.84142L228.24553 183.90141L222.68553 179.77141L220.48553 179.48141L218.71553 175.65141L218.94553 175.26141L217.29553 173.11142L219.51553 170.69142L221.70554 167.41142L226.50554 164.57143L226.72554 166.97142L230.66554 169.16142L237.87555 155.60143L237.87555 155.43143L268.32556 184.79143L281.62555 195.70143L300.20554 208.49142L302.76553 211.05142L303.95554 216.33142L303.95554 228.26141L298.83554 232.87141L301.05554 240.88141L300.54553 244.8014L295.94553 246.68141L287.75552 242.93141L271.90552 243.10141L269.34552 240.0314L267.81552 239.8614L262.8655 242.24141L259.1155 247.87141L260.65552 261.17142L263.03552 266.62143L262.8655 269.52142L261.1955 271.90143L246.84549 269.35144L242.57549 273.44144L233.20549 266.96143L222.6355 269.35144L220.87556 264.67142z" stroke="none" fill="#000000" fill-rule="nonzero" />
    <path d="M474.15558 286.93143L475.45557 287.9814L476.54556 293.17142L474.15555 295.80142L474.95554 299.17142L476.54553 300.46143L476.44553 306.11142L483.14554 307.96143L491.77554 306.2314L491.56555 292.39142L502.47556 289.09143L504.97556 289.55142L506.79556 293.9814L509.86557 316.83142L509.06558 318.42142L502.7056 320.3514L507.5556 344.6014L506.6056 348.89142L493.1356 349.9114L494.9456 352.6314L494.2656 353.2314L496.8056 354.3414L498.9656 357.3014L502.0356 364.01138L502.7556 360.8014L505.66562 359.01138L514.1356 359.81137L516.0656 370.2014L511.57562 374.29138L511.69562 390.8614L505.0656 393.0514L505.88562 394.9714L507.9356 397.4814L517.4856 394.7514L520.1156 403.3214L528.1756 402.2514L530.4456 400.89142L532.8656 402.49142L533.4756 405.3514L534.4256 405.1214L537.7256 416.3514L541.8156 418.2814L545.4556 416.6914L553.98566 416.0114L555.23566 412.49142L559.97565 413.6014L562.16565 420.20142L560.35565 420.33142L560.1257 422.3814L564.4457 429.5714L567.6357 428.0614L570.5957 424.20142L572.4157 424.20142L575.8257 427.5414L576.4557 429.3714L573.2857 429.5414L570.0757 433.8514L575.0957 442.0014L576.6057 447.3514L576.0157 470.80142L572.1657 474.30142L573.9657 482.30142L577.7257 485.9814L578.5757 492.2914L576.5257 495.1914L566.8057 495.5314L563.56573 497.1114L552.21576 487.97137L540.9158 487.63138L536.97577 486.43137L535.4358 481.98135L541.0858 477.02136L542.79584 471.71136L541.42584 468.80136L533.2059 469.66135L525.3359 465.72134L524.01587 465.96133L524.30585 462.81134L526.5358 461.44135L530.81586 452.88135L524.99585 440.22134L524.48584 431.83133L517.12585 432.17133L515.92584 431.32132L516.7858 428.92133L515.0758 427.04132L512.5058 427.04132L511.1358 427.9013L509.9358 437.66132L507.70578 438.35132L503.0858 436.4713L502.7458 438.1813L500.17578 437.6713L496.4058 434.4213L496.23578 431.8513L494.35577 431.8513L492.98578 431.5113L491.2758 427.9213L491.0958 419.0113L492.8058 415.6013L490.41577 409.97128L489.39578 406.22128L491.61578 402.81128L492.1258 399.2313L489.9058 396.6713L483.9358 394.28128L480.3558 396.1613L476.77582 398.3813L473.02582 400.2613L466.37582 397.53128L461.60583 393.61127L460.58585 391.05127L461.26584 384.91125L463.82584 384.57126L471.49585 386.96127L472.68585 384.9113L470.63586 380.99127L473.70587 374.00128L474.04587 369.9113L471.65585 363.77127L459.84586 352.53128L460.40585 351.4113L455.12585 344.0813L450.01587 342.7213L448.82587 341.70132L449.84586 338.9713L454.10587 335.0513L458.02588 333.3513L458.02588 331.1313L461.43588 325.8513L466.7259 323.6313L469.7959 317.6613L468.6059 316.47128L466.5659 317.15128L460.7659 321.92126L455.9959 323.80127L454.97592 325.85126L447.81592 326.70126L441.50592 324.31125L438.4359 320.90125L438.60593 316.98123L438.4359 310.33124L442.1859 304.19122L448.32593 302.32123L449.34592 299.59122L467.07593 291.5812L467.20593 290.4212L466.83594 288.5712L474.15594 286.93118L474.15558 286.93143zM334.45557 82.951416L335.75555 84.43142L338.88556 83.75142L343.43555 87.841415L347.30554 88.18141L351.44556 90.96141L354.35556 90.46141L355.26556 94.89141L359.44556 93.92141L360.15555 95.12141L362.76553 95.35141L363.56552 93.99141L367.35553 93.42141L371.09552 96.46141L375.9555 93.99141L381.7555 96.72141L384.5955 101.38142L383.6855 107.06142L381.86548 109.22142L383.0055 114.56142L381.9855 118.99142L386.9855 123.65141L387.7855 128.54141L395.1755 137.4114L396.3255 138.15141L400.7455 133.6614L403.3555 134.0014L405.4055 135.02141L408.3555 139.4214L410.7455 140.02141L412.7955 143.2014L415.7755 142.1914L420.9955 142.96141L422.7355 142.21141L421.5055 136.6614L424.9555 139.0614L423.8855 133.5114L430.5755 133.4314L429.8955 130.4614L436.43552 131.7714L437.34552 132.2314L437.23553 137.0014L439.28552 140.1814L440.9955 156.7814L442.28552 158.8714L444.8655 156.8914L444.9755 158.2514L449.7855 157.4314L453.9555 158.7114L451.7955 163.4814L448.1055 165.1514L445.5555 168.6314L442.6755 174.7014L446.1955 181.1814L447.96548 181.0314L449.4755 179.0514L453.27548 180.76141L450.92548 192.37141L445.1555 195.97142L443.49548 201.31142L447.82547 210.09142L445.98547 210.58142L446.08548 216.33142L444.6855 216.77142L443.6255 221.08142L448.1355 220.88142L445.7755 224.37143L444.2655 224.47144L445.4255 228.49144L440.87552 238.47144L429.2055 242.32144L435.2355 254.55144L439.7555 252.33144L440.6355 253.58144L439.7555 254.65144L439.8255 258.46146L441.2255 260.33145L439.8555 262.17145L440.4155 263.42145L436.4355 267.68146L441.2255 265.54144L441.8455 266.82144L439.1055 269.99146L439.7455 274.08145L442.53552 274.72147L449.79553 267.31146L450.81552 278.80145L455.07553 273.95145L462.85553 270.53143L465.72552 287.13144L462.31552 291.03143L446.1155 295.12143L443.5555 297.34143L438.44553 297.17142L436.39554 296.3214L431.96555 287.46143L423.72556 281.0714L423.10556 278.2614L427.53555 273.15143L429.41556 267.52142L428.05557 265.4814L425.83557 264.80142L421.74557 258.83142L415.60556 259.68143L413.04556 256.10144L411.34555 250.47144L412.02554 239.22144L405.88553 233.76143L405.88553 219.78143L406.90552 217.22144L405.7155 212.28143L406.56552 197.62143L405.20554 188.07143L405.54553 180.40143L408.27554 173.24142L407.76553 167.61142L405.03552 162.84142L402.6455 161.14142L397.2455 161.10143L390.88553 157.04143L378.09552 154.82143L376.90552 153.12143L377.07553 150.05142L378.60553 147.83142L371.44553 135.73141L366.50552 134.54141L361.56552 135.39142L361.22552 132.83142L359.5255 132.49142L350.4955 122.26143L341.28552 120.04143L337.0255 127.711426L335.3255 128.56143L332.9355 128.56143L329.3555 126.001434L327.6555 121.91144L334.30548 117.48144L337.20547 114.071434L338.22546 109.13143L341.80545 111.52143L347.26544 107.94143L346.92545 105.211426L344.87546 103.51143L335.15546 102.49143L332.25546 97.031425L330.55545 96.01143L323.48544 96.211426L323.01544 94.211426L325.28543 93.00143L325.39542 90.50143L323.9154 88.57143L331.7554 82.55143L334.4554 82.95143z" stroke="none" fill="#000000" fill-rule="nonzero" />
    <path d="M221.12556 42.891415L224.65556 44.591415L242.82556 44.851414L248.22556 47.311413L250.86555 53.34141L249.84555 59.10141L244.88554 65.39141L244.77554 68.35141L247.38554 70.05141L253.65555 68.831406L257.61554 63.231407L261.82553 60.051407L265.45554 60.391407L266.93555 61.871407L268.64554 70.73141L273.07553 73.69141L277.42554 73.011406L288.13553 64.20141L292.60553 66.42141L295.97552 64.08141L297.34552 64.54141L300.07553 68.40141L300.07553 78.521416L297.11554 84.32142L291.09555 86.93142L292.11554 93.41142L299.84555 92.50142L303.14554 86.36142L307.11554 84.54142L310.75555 85.00142L311.77554 86.14142L311.77554 91.14142L309.73553 95.11142L310.60553 103.90143L316.55554 108.30143L320.08554 108.04143L325.08554 110.91143L327.70554 114.40143L326.39554 117.90143L313.93555 126.42143L308.03555 133.64143L291.20557 132.76143L283.55557 129.27142L279.62558 129.70142L272.4156 135.17142L259.9556 131.45142L240.0656 131.23141L236.5656 131.23141L233.2856 123.801414L237.8756 120.301414L238.96559 116.81142L243.99559 116.81142L245.08559 112.441414L247.49559 111.121414L248.14558 104.13142L241.37558 93.42141L226.50558 78.78141L214.48558 77.68141L210.55559 68.50141L208.11559 67.24141L209.67558 66.53141L213.17558 64.79141L216.23558 64.79141L221.92558 58.451412L216.89558 53.64141L208.80559 50.14141L209.89558 46.21141L218.57559 39.361412L221.12556 42.891415z" stroke="none" fill="#000000" fill-rule="nonzero" />
    <path d="M368.03558 338.61142L370.0156 342.40143L369.3356 346.67142L367.6256 346.67142L364.04562 350.2514L363.36563 355.1914L361.32562 359.45142L351.77563 361.1614L346.31564 364.7414L344.61563 366.9514L344.27563 370.7014L346.48563 375.6514L345.46564 377.3514L340.35565 377.86142L338.81564 383.3214L340.35565 385.20142L339.67566 386.2214L336.77567 386.2214L332.16568 383.6614L326.37567 375.6514L324.32568 374.4614L322.62567 369.1714L320.91568 369.00137L319.21567 371.22137L315.12567 370.3614L312.56567 368.4914L307.44568 371.73138L303.35568 369.85138L298.2457 372.9214L290.9157 367.47137L286.4757 367.29138L287.67572 365.50137L285.45572 361.41138L279.3157 359.03137L274.20572 354.25137L273.86572 351.87137L278.12573 352.04138L279.48572 346.2414L279.99573 345.57138L282.38574 347.09137L291.93573 346.07138L304.03574 340.2714L307.27573 335.5014L312.56573 334.9914L314.26575 328.1714L312.05576 320.6714L306.42575 318.79138L307.10574 316.9214L315.63574 313.3414L319.55576 307.8814L326.20575 306.52142L328.07574 300.89142L328.58575 300.62143L332.50577 303.87143L340.18576 303.36142L341.37576 304.90143L340.18576 305.92142L342.05576 312.74142L347.00577 316.49142L347.17578 318.71143L352.79578 326.55142L355.86578 326.55142L358.0858 330.1314L358.76578 335.7614L367.97577 338.65143L368.03558 338.61142z" stroke="none" fill="#000000" fill-rule="nonzero" />
    <path d="M563.51556 497.08142L566.4156 501.47144L573.2356 505.73145L581.5856 506.41144L583.4656 509.31143L583.9756 514.59143L588.57556 522.10144L590.9656 522.44147L593.18555 526.5315L595.64557 526.9615L598.2956 523.6315L601.3656 524.6515L605.6256 528.7415L611.2556 527.7215L612.27563 530.2815L610.7456 532.6615L595.3956 542.0415L593.35565 541.0215L577.49567 541.19147L571.6957 538.6315L566.0757 542.3815L563.8557 548.86145L560.44574 549.8815L554.4857 545.62146L552.0957 539.31146L548.4357 535.17145L545.27576 522.78143L541.8658 519.03143L537.77576 516.98145L536.8558 518.18146L538.96576 522.78143L537.09576 527.3814L532.70575 527.9514L529.07574 525.16144L525.0557 525.9514L524.81573 531.6414L526.52576 540.5114L520.89575 544.60144L513.56573 544.60144L507.07574 540.5214L505.72574 537.4414L506.37573 534.4214L505.38574 529.9414L499.24573 527.5514L495.22574 527.6214L493.44574 526.0214L491.40573 515.9614L487.99573 513.0614L485.6057 513.2314L477.54572 504.03137L477.0357 499.41138L485.5957 494.27136L480.79572 489.14136L490.3857 481.61136L496.20572 483.83136L504.24573 476.82135L513.14575 476.65134L516.40576 472.54135L521.70575 471.34134L523.4158 466.03134L525.3058 465.69135L533.1758 469.63135L541.3858 468.77136L542.7558 471.68137L541.0458 476.99136L535.39575 481.95135L536.9357 486.40137L540.87573 487.60138L552.1757 487.94138L563.51556 497.08142z" stroke="none" fill="#000000" fill-rule="nonzero" />
    <path d="M329.27557 640.3314L328.25558 642.72144L323.65558 642.55145L322.12558 642.55145L319.56558 643.4014L320.24557 648.34143L325.1956 650.22144L329.62558 654.31146L333.37558 654.1415L343.9456 646.6415L354.34558 646.1315L355.87558 645.4515L355.87558 643.4015L351.27557 629.9315L352.29556 626.52155L357.23557 624.47156L361.66556 626.35156L363.71555 629.08154L368.14554 635.39154L370.86554 642.3115L364.48553 644.6015L360.90555 647.5015L361.92554 657.2215L363.11554 658.2415L362.66553 665.57153L348.03552 667.27155L332.8655 671.70154L327.40552 671.1915L325.0155 672.5515L324.5055 676.4715L325.3555 679.2015L333.8755 686.0215L337.7955 685.3415L339.5055 684.6615L348.8855 680.5715L350.8855 681.9615L351.1855 686.2815L349.4755 689.69147L345.3855 692.25146L333.4555 693.44147L332.43552 695.3215L333.1155 703.3315L332.9455 701.80145L332.2655 705.04144L323.8255 705.36145L324.5055 702.91144L326.21548 702.4014L326.7255 698.8214L323.1455 695.9214L321.78552 693.02136L321.78552 687.74133L319.0555 685.69135L316.3255 688.93134L311.0455 681.77136L302.1755 680.07135L300.3055 677.68134L298.25552 666.77136L299.6155 665.58136L308.65552 665.75134L310.53552 672.2313L312.41553 672.74133L315.48553 671.38135L317.70554 669.68134L318.72552 665.5913L314.8055 663.0313L312.8055 663.0313L313.44553 662.18134L312.25552 659.45135L307.31552 654.68134L306.4655 638.49133L305.44553 636.6113L307.83554 631.1613L308.34555 622.4713L310.22556 620.7713L317.55554 619.5813L318.14554 618.5613L319.43555 618.5613L321.65555 616.5213L323.36554 617.0313L325.41553 622.3213L325.07553 625.0513L323.02554 629.48126L318.59555 631.70123L318.59555 633.58124L327.46555 636.3112L329.34555 637.84125L329.34555 640.33124L329.27557 640.3314zM405.39557 624.98145L404.03558 630.86145L398.75558 634.9515L386.8956 638.8515L386.0556 632.6415L384.8656 626.50146L381.1156 627.0115L380.0956 625.8215L381.1156 618.3215L389.4656 612.18146L393.72562 610.6514L391.3356 600.0814L390.9956 595.1414L394.91562 588.4914L405.82562 577.7514L407.11563 576.5114L415.11563 581.0714L417.16562 583.4614L417.41562 585.74146L416.82562 589.94147L409.83563 596.16144L407.60562 602.05145L399.2556 607.84143L398.0656 611.85144L404.0356 620.8914L405.3956 624.98145z" stroke="none" fill="#000000" fill-rule="nonzero" />
    <path d="M356.82556 229.82143L356.29556 230.48143L353.05557 237.13142L354.41556 241.05142L355.26556 247.53142L354.07556 248.72142L344.18555 250.77142L331.06555 259.6314L327.13556 265.4314L326.79556 268.3314L328.50555 270.3714L328.50555 272.9314L322.70557 276.8514L318.44556 278.2214L304.97556 280.2614L297.47556 282.99142L292.87555 282.4814L287.41556 279.24142L272.75555 277.53143L265.42557 275.49142L261.19556 271.90143L262.86557 269.52142L263.03558 266.62143L260.65558 261.17142L259.11557 247.87141L262.86557 242.24141L267.81558 239.8614L269.34558 240.0314L271.90558 243.10141L287.75558 242.93141L295.9456 246.68141L300.5456 244.8014L301.0556 240.88141L298.8356 232.87141L303.9556 228.26141L303.9556 216.33142L302.7656 211.05142L301.9356 210.22142L305.0656 206.44142L306.5956 206.27142L311.88562 209.17142L315.29562 209.34142L317.16562 204.23141L321.9356 201.67142L323.7956 199.94142L333.3656 200.82143L341.3756 207.81143L341.5056 207.69144L339.5056 211.22144L337.1156 212.58144L337.7956 214.11143L341.2056 215.65143L356.03558 228.09143L356.82556 229.82143z" stroke="none" fill="#000000" fill-rule="nonzero" />
    <path d="M242.08557 385.0114L239.21558 383.4814L238.23558 380.1914L233.46558 380.0314L227.70558 375.5914L223.26558 374.7614L221.94557 369.99142L219.15558 369.66144L213.72559 362.26144L206.32559 357.49146L206.4856 353.05145L199.74559 350.26144L198.75558 340.39145L193.65558 329.20145L191.52557 327.89145L190.53557 319.83145L187.73557 317.03146L185.59557 311.77145L180.50557 313.41147L177.37556 309.79147L172.60556 308.48148L169.80556 305.19147L169.31555 301.73148L165.36555 298.77148L165.01555 294.1815L171.65555 293.1015L178.13554 283.0415L186.83554 280.4815L191.60555 276.5615L198.93555 275.5415L209.67555 276.2215L211.21555 275.2015L212.57555 272.4715L212.57555 265.1415L213.93555 263.6015L216.83554 263.0915L220.87553 264.7215L222.63553 269.4015L233.20554 267.01147L242.57553 273.4915L246.84554 269.4015L249.91554 269.4015L255.36554 271.45148L261.19553 271.95148L265.42554 275.54147L269.40555 276.88147L267.55554 292.24146L254.76555 302.81146L248.46555 314.75146L243.34555 320.89148L228.34555 328.9015L227.15555 331.2915L229.70555 339.1315L227.49554 343.7315L223.91554 347.4815L224.59554 354.8115L226.46553 360.4415L238.74553 369.8115L241.12553 373.7415L242.49553 376.1215L242.08557 385.0114z" stroke="none" fill="#000000" fill-rule="nonzero" />
</g>
</svg>